<svg xmlns="http://www.w3.org/2000/svg" width="285.243" height="71.992" viewBox="0 0 285.243 71.992">
  <g id="Gruppe_18" data-name="Gruppe 18" transform="translate(-71.88 -441.525)">
    <path id="Pfad_60" data-name="Pfad 60" d="M21.714-9.823c0-9.917-13.348-7.8-13.348-13.489,0-2.256,1.786-3.854,5.311-3.854a20.807,20.807,0,0,1,5.687.846l.329-5.358a34.824,34.824,0,0,0-5.734-.564c-7.614,0-12.079,3.9-12.079,9.541,0,10.434,13.3,7.661,13.3,13.724,0,2.914-2.4,4.183-5.5,4.183A21.944,21.944,0,0,1,3.055-5.922L2.679-.235A26.112,26.112,0,0,0,9.165.517C16.967.517,21.714-3.854,21.714-9.823ZM45.355-26.508v-5.217H22.8v5.217H31.02V0h6.11V-26.508ZM74.4-12.314V-31.725H68.338v19.787c0,5.405-1.974,7.379-6.674,7.379-5.264,0-6.58-2.82-6.58-6.815V-31.725h-6.11V-11C48.974-4.935,51.23.517,61.241.517,69.607.517,74.4-3.619,74.4-12.314Zm-5.17-25.051a3.22,3.22,0,0,0-3.243-3.243,3.22,3.22,0,0,0-3.243,3.243,3.249,3.249,0,0,0,3.243,3.243A3.249,3.249,0,0,0,69.231-37.365Zm-9.494,0a3.22,3.22,0,0,0-3.243-3.243,3.22,3.22,0,0,0-3.243,3.243,3.25,3.25,0,0,0,3.243,3.243A3.25,3.25,0,0,0,59.737-37.365Zm40.608,10.857v-5.217H77.785v5.217H86.01V0h6.11V-26.508ZM123.657,0V-5.64h-6.862c-3.9,0-6.063,0-6.862.094C110.5-6.3,110.92-7,111.39-7.755l12.079-19.082v-4.888H102.977v5.5h7.332c3.149,0,4.653-.047,5.781-.094a34,34,0,0,0-2.068,3.008L102.6-4.7V0Zm22.607,0V-5.217H135.125v-8.6H145.7V-18.8H135.125v-7.8h11.139v-5.123H129.015V0Zm28.67,0L167.32-10.669c-.8-1.081-1.692-2.3-2.585-3.478,4.794-.752,8.084-4.136,8.084-8.836,0-6.486-4.512-8.93-11.515-8.93-3.666,0-6.627.047-9.118.188V0h6.11V-13.113h.235L167.367,0Zm-8.507-22.372c0,2.961-2.256,4.841-5.922,4.841-.94,0-1.786-.047-2.209-.094V-26.79a17.3,17.3,0,0,1,2.4-.141C164.547-26.931,166.427-25.427,166.427-22.372Zm34.733,12.6a7,7,0,0,0-5.64-7.1v-.094a7.687,7.687,0,0,0,5.029-7.1c0-5.076-3.807-7.849-10.669-7.849-3.9,0-8.037.094-10.716.235V0c4,0,7.332.094,9.259.094C198.011.094,201.16-5.17,201.16-9.776Zm-7.05-13.3c0,2.82-2.162,4.512-6.345,4.512-.987,0-1.739,0-2.491-.047v-8.272c1.081-.047,2.3-.094,3.572-.094C192.7-26.978,194.11-25.427,194.11-23.077Zm.517,13.442c0,2.867-2.021,4.747-6.016,4.747a27.872,27.872,0,0,1-3.337-.188v-8.883c.658-.047,2.209-.047,2.679-.047C191.948-14.006,194.627-12.737,194.627-9.635ZM231.945,0,220.618-31.725h-6.909L202.617,0h6.157l2.209-6.486h11.985L225.177,0ZM221.37-11.327h-8.836l2.867-8.084c.611-1.833,1.128-3.666,1.5-5.311h.047a38.963,38.963,0,0,0,1.457,5.076Zm34.5,10.34-.705-5.452a16.78,16.78,0,0,1-6.157,1.316c-6.392,0-9.259-3.854-9.259-10.763,0-6.157,2.914-10.622,8.836-10.622a22.624,22.624,0,0,1,6.392.94l.658-5.546a26.339,26.339,0,0,0-6.721-.846c-10.622,0-15.886,7.05-15.886,17.108,0,7.9,3.572,15.275,14.664,15.275A24.62,24.62,0,0,0,255.868-.987ZM287.123,0V-31.725h-6.11v12.69H267.571v-12.69h-6.11V0h6.11V-13.771h13.442V0Z" transform="translate(70 513)" fill="#fff"/>
    <path id="Pfad_59" data-name="Pfad 59" d="M14.625-16.375a15.014,15.014,0,0,0-4.55-.7c-5.525,0-8.875,3.85-8.875,8.95C1.2-2.85,4.55.2,9.5.2a16.5,16.5,0,0,0,5.425-.925v-7.7h-1.6V-1.7a11.412,11.412,0,0,1-3.575.55C5.7-1.15,2.9-3.725,2.9-8.4c0-5,3.35-7.35,6.975-7.35a12.447,12.447,0,0,1,4.5.9ZM27.625,0V-1.325h-6.45v-15.55h-1.6V0ZM42.65,0,36.325-16.875H34.6L28.25,0h1.675L31.5-4.3h7.775L40.8,0ZM38.8-5.6H31.95l2.65-7.2c.3-.8.55-1.575.775-2.375H35.4a20.886,20.886,0,0,0,.75,2.425ZM54-4.8c0-5.275-8.025-3.8-8.025-7.875,0-1.85,1.4-3.075,3.975-3.075a10.5,10.5,0,0,1,3.05.475l.1-1.5a16.767,16.767,0,0,0-3.025-.3c-3.6,0-5.725,1.95-5.725,4.575,0,5.25,8,3.75,8,7.925,0,2.45-1.95,3.375-4.225,3.375a10.975,10.975,0,0,1-3.45-.625l-.1,1.6a12.375,12.375,0,0,0,3.4.425C51.7.2,54-1.85,54-4.8Zm8.45-.775V-6.85H56.725v1.275ZM87.325-.8c-.95-.65-2.175-1.575-3.55-2.675a11.538,11.538,0,0,0,2.325-7.6H84.5A10.155,10.155,0,0,1,82.675-4.35v-.025A62.1,62.1,0,0,1,76.45-10.3c2.35-1.825,3.2-3.325,3.2-5,0-1.8-1.275-3.175-3.675-3.175-2.625,0-4.05,1.625-4.05,3.55,0,1.325.55,2.45,2.45,4.65C72.2-8.575,70.675-7,70.675-4.6c0,2.825,1.95,4.825,5.325,4.825a9.7,9.7,0,0,0,6.7-2.55c1.025.875,2.375,1.9,3.625,2.775Zm-9.25-14.275c0,1.45-.85,2.55-2.475,3.85-1.6-1.825-2.125-2.85-2.125-3.75a2.159,2.159,0,0,1,2.325-2.25A2.02,2.02,0,0,1,78.075-15.075ZM81.65-3.2a7.775,7.775,0,0,1-5.325,2.1,3.759,3.759,0,0,1-4.05-3.725c0-1.55.85-2.85,2.975-4.525A63.616,63.616,0,0,0,81.65-3.2ZM109.675,0V-16.875h-1.6v7.45h-9.65v-7.45h-1.6V0h1.6V-8.1h9.65V0ZM123.3,0V-1.325h-6.725v-6.75h6.4V-9.35h-6.4v-6.225H123.3v-1.3h-8.325V0Zm5.975,0V-16.875h-1.6V0Zm23.25,0L150.05-16.875h-2.2L143.65-4.65a25.3,25.3,0,0,0-.9,3h-.05a27.912,27.912,0,0,0-.95-3.225l-4.1-12h-2.1L133.2,0h1.675l1.275-10.775c.2-1.75.375-3.125.45-4.425h.025a30.064,30.064,0,0,0,1.05,3.425L141.7,0h1.925l4.25-12.55c.375-1.1.65-2.025.8-2.65h.05c.075.875.225,2.1.525,4.275L150.825,0ZM168.55,0l-6.325-16.875H160.5L154.15,0h1.675L157.4-4.3h7.775L166.7,0ZM164.7-5.6h-6.85l2.65-7.2c.3-.8.55-1.575.775-2.375h.025a20.885,20.885,0,0,0,.75,2.425Zm14.85-9.95v-1.325H167.5v1.325h5.225V0h1.6V-15.55ZM199.675,0,197.2-16.875H195L190.8-4.65a25.3,25.3,0,0,0-.9,3h-.05a27.912,27.912,0,0,0-.95-3.225l-4.1-12h-2.1L180.35,0h1.675L183.3-10.775c.2-1.75.375-3.125.45-4.425h.025a30.064,30.064,0,0,0,1.05,3.425L188.85,0h1.925l4.25-12.55c.375-1.1.65-2.025.8-2.65h.05c.075.875.225,2.1.525,4.275L197.975,0ZM216.2-6.375v-10.5h-1.575v10.65c0,3.775-1.625,5.125-4.85,5.125-3.85,0-4.7-2.125-4.7-4.625v-11.15h-1.6V-5.55c0,2.825.95,5.75,6.15,5.75C214,.2,216.2-2.1,216.2-6.375ZM229.7-4.8c0-5.275-8.025-3.8-8.025-7.875,0-1.85,1.4-3.075,3.975-3.075a10.5,10.5,0,0,1,3.05.475l.1-1.5a16.767,16.767,0,0,0-3.025-.3c-3.6,0-5.725,1.95-5.725,4.575,0,5.25,8,3.75,8,7.925,0,2.45-1.95,3.375-4.225,3.375a10.975,10.975,0,0,1-3.45-.625l-.1,1.6a12.375,12.375,0,0,0,3.4.425C227.4.2,229.7-1.85,229.7-4.8ZM241.925,0V-1.325H235.2v-6.75h6.4V-9.35h-6.4v-6.225h6.725v-1.3H233.6V0Zm17.1-6.375v-10.5H257.45v10.65c0,3.775-1.625,5.125-4.85,5.125-3.85,0-4.7-2.125-4.7-4.625v-11.15h-1.6V-5.55c0,2.825.95,5.75,6.15,5.75C256.825.2,259.025-2.1,259.025-6.375Zm23,6.375L279.55-16.875h-2.2L273.15-4.65a25.3,25.3,0,0,0-.9,3h-.05a27.915,27.915,0,0,0-.95-3.225l-4.1-12h-2.1L262.7,0h1.675l1.275-10.775c.2-1.75.375-3.125.45-4.425h.025a30.061,30.061,0,0,0,1.05,3.425L271.2,0h1.925l4.25-12.55c.375-1.1.65-2.025.8-2.65h.05c.075.875.225,2.1.525,4.275L280.325,0Z" transform="translate(71 460)" fill="#fff"/>
  </g>
</svg>
