<?xml version="1.0" standalone="no"?>
<!DOCTYPE svg PUBLIC "-//W3C//DTD SVG 20010904//EN"
 "http://www.w3.org/TR/2001/REC-SVG-20010904/DTD/svg10.dtd">
<svg version="1.0" xmlns="http://www.w3.org/2000/svg"
 width="1024.000000pt" height="1024.000000pt" viewBox="0 0 1024.000000 1024.000000"
 preserveAspectRatio="xMidYMid meet">
<metadata>
Created by potrace 1.14, written by Peter Selinger 2001-2017
</metadata>
<g transform="translate(0.000000,1024.000000) scale(0.100000,-0.100000)"
fill="#000000" stroke="none">
<path d="M0 5120 l0 -5120 5120 0 5120 0 0 5120 0 5120 -5120 0 -5120 0 0
-5120z m5471 4144 c59 -30 73 -115 27 -163 -11 -12 -18 -23 -17 -25 43 -27 82
-64 95 -88 9 -17 42 -55 75 -85 35 -33 69 -77 86 -111 l28 -57 3 -772 2 -773
200 0 c187 0 201 -1 220 -20 11 -11 20 -24 20 -30 0 -6 41 -10 103 -10 131 0
147 -9 147 -82 0 -80 -12 -88 -138 -88 -99 0 -105 -1 -124 -25 l-19 -25 -205
0 -204 0 0 -103 0 -103 58 -18 c31 -10 89 -34 127 -54 362 -181 586 -547 585
-955 -1 -187 -40 -344 -126 -506 l-45 -84 89 -91 c62 -63 92 -101 97 -124 27
-126 -106 -233 -218 -176 -18 10 -64 48 -104 87 l-72 69 -88 -59 c-104 -69
-213 -117 -335 -147 l-88 -21 0 -962 c0 -650 -4 -978 -11 -1012 -7 -32 -22
-62 -41 -83 -18 -19 -32 -46 -34 -63 -3 -37 -45 -75 -83 -75 -40 0 -79 34 -87
76 -3 19 -19 47 -34 63 -16 15 -33 45 -39 67 -8 27 -11 342 -11 1016 l0 977
-37 7 c-21 4 -68 17 -105 30 l-68 23 0 -1116 0 -1116 40 -37 c48 -44 53 -83
16 -127 -21 -26 -24 -40 -30 -183 -6 -131 -10 -158 -26 -175 -16 -17 -19 -41
-22 -177 -3 -146 -4 -158 -25 -180 -22 -24 -23 -31 -23 -222 0 -187 1 -198 22
-227 35 -47 30 -94 -15 -135 -30 -28 -44 -34 -82 -34 -37 0 -52 6 -81 33 -44
40 -50 90 -16 136 21 29 22 40 22 226 0 187 -1 197 -22 226 -21 28 -23 44 -26
185 -3 136 -6 155 -22 164 -15 8 -19 30 -25 172 -7 151 -9 165 -31 191 -37 44
-32 83 16 127 l40 37 0 1203 0 1203 -73 77 c-115 119 -185 232 -240 387 -81
224 -76 507 13 738 94 242 276 447 498 559 l52 26 0 160 0 160 -127 0 c-118 0
-128 -2 -151 -22 -22 -21 -34 -23 -172 -26 -165 -4 -203 5 -236 56 -22 34 -22
103 -1 136 34 51 62 61 189 65 140 4 174 -1 222 -34 34 -23 46 -25 156 -25
l120 0 0 779 c0 735 1 783 19 840 21 66 76 149 122 182 16 11 38 38 49 59 20
40 76 90 100 90 9 0 4 11 -12 28 -34 36 -42 65 -28 108 21 64 97 91 161 58z
m-732 -203 c11 -20 12 -18 -217 -456 -333 -637 -789 -1438 -1203 -2113 -127
-207 -187 -314 -169 -300 15 13 89 76 164 141 286 249 455 354 646 403 105 27
189 -8 220 -91 21 -56 -18 -180 -136 -425 -235 -489 -635 -990 -1176 -1472
-93 -82 -168 -151 -168 -153 0 -2 25 5 56 15 74 26 347 86 449 99 253 34 576
42 762 21 207 -23 303 -98 303 -235 0 -108 -86 -221 -250 -326 -211 -136 -386
-229 -617 -328 -143 -61 -435 -160 -536 -182 -32 -7 -60 -16 -63 -20 -7 -13
132 -125 271 -218 343 -230 719 -367 1135 -416 69 -8 150 -15 182 -15 57 0 88
-16 88 -45 0 -38 -58 -43 -260 -20 -263 30 -484 86 -718 180 -169 70 -290 134
-452 241 -171 113 -380 285 -380 312 0 24 35 41 142 66 398 96 834 288 1183
519 122 81 205 185 205 258 0 40 -40 92 -91 117 -70 35 -154 44 -399 46 -308
1 -526 -25 -823 -100 -127 -32 -331 -95 -368 -115 -19 -10 -59 15 -59 36 0 8
53 58 117 111 543 452 946 891 1213 1319 129 207 290 541 313 652 10 46 9 54
-7 72 -30 33 -77 36 -158 11 -178 -54 -309 -144 -673 -460 -308 -268 -320
-277 -340 -260 -8 7 -15 21 -15 31 0 10 71 132 158 271 540 862 1182 1989
1537 2698 26 52 56 107 67 123 22 31 53 35 67 8z m45 -298 c8 -24 -11 -1550
-19 -1563 -4 -6 -71 -10 -174 -10 -192 0 -205 -4 -236 -82 -24 -60 -13 -119
30 -166 l33 -37 154 -3 c84 -1 163 -5 176 -7 21 -5 22 -9 22 -126 l0 -122 -52
-46 c-238 -208 -383 -460 -434 -751 -21 -123 -14 -348 15 -465 56 -226 140
-389 291 -563 l70 -82 0 -774 0 -775 -57 -7 c-94 -11 -387 3 -518 26 -279 48
-606 157 -934 311 -82 38 -111 57 -111 70 0 12 10 21 28 25 308 73 541 155
817 289 254 123 391 227 483 364 53 80 65 126 60 226 -6 110 -38 177 -125 264
-78 77 -174 129 -298 163 -107 29 -357 31 -485 4 -76 -15 -228 -62 -317 -98
-24 -9 -36 -9 -44 -1 -8 8 47 69 209 230 291 290 455 495 636 795 236 394 334
688 306 916 -16 122 -54 179 -127 189 -78 10 -283 -55 -464 -148 -147 -76
-153 -60 -41 109 316 473 713 1154 952 1632 93 186 119 230 135 230 8 0 16 -8
19 -17z m-334 -6033 c20 -20 20 -33 20 -785 l0 -766 -25 -24 c-29 -30 -45 -31
-79 -4 l-26 20 0 768 c0 678 2 769 16 789 19 28 67 29 94 2z"/>
<path d="M5361 9214 c-12 -15 -21 -35 -21 -46 0 -27 45 -68 75 -68 30 0 75 41
75 68 0 35 -38 72 -75 72 -24 0 -39 -7 -54 -26z"/>
<path d="M5338 9023 c-43 -27 -45 -46 -5 -36 39 10 121 10 164 1 24 -6 31 -4
27 5 -16 44 -134 62 -186 30z"/>
<path d="M5308 8923 c-21 -8 -38 -22 -38 -29 0 -19 32 -80 64 -123 l26 -35 0
-866 c0 -660 3 -869 12 -878 7 -7 24 -12 38 -12 14 0 31 5 38 12 9 9 12 218
12 879 l0 867 36 43 c40 48 64 91 64 114 0 18 -57 45 -95 45 l-25 0 0 -892 c0
-500 -4 -899 -9 -907 -5 -8 -16 -11 -25 -8 -15 6 -16 90 -16 907 l0 900 -22
-1 c-13 0 -40 -7 -60 -16z"/>
<path d="M5590 8854 c-6 -16 -29 -52 -51 -80 l-39 -51 0 -860 c0 -740 -2 -862
-15 -879 -20 -26 -19 -31 8 -38 49 -12 127 -114 127 -166 0 -64 -42 -80 -207
-80 -176 0 -215 20 -199 105 7 37 85 130 116 140 18 6 19 8 5 35 -13 25 -15
146 -15 886 l0 856 -40 60 c-22 33 -40 67 -40 75 0 28 -33 8 -66 -40 -66 -95
-64 -67 -64 -949 l0 -798 -163 0 c-162 0 -164 0 -185 25 -21 25 -25 25 -167
25 -132 0 -147 -2 -165 -20 -30 -30 -27 -83 6 -109 24 -19 40 -21 161 -21 130
0 135 1 159 25 25 25 27 25 189 25 l165 0 -1 -202 0 -203 -69 -33 c-194 -92
-353 -258 -456 -476 -59 -125 -84 -233 -91 -391 -6 -152 16 -287 69 -415 50
-121 142 -262 217 -334 l31 -30 0 650 c0 598 1 652 18 684 51 102 192 106 252
8 19 -32 20 -52 20 -785 l0 -751 78 -25 c42 -14 89 -28 104 -31 l27 -6 3 312
c3 295 4 316 24 359 62 134 232 232 290 168 18 -20 19 -44 22 -431 l3 -410 42
7 c120 21 290 100 405 190 l67 52 101 -98 c66 -65 109 -99 123 -99 17 0 -21
48 -179 220 l-201 220 -41 -35 c-50 -42 -123 -79 -143 -72 -7 3 -18 15 -24 25
-35 65 223 342 319 342 64 0 61 -55 -11 -149 -39 -52 -40 -54 -22 -71 39 -38
414 -360 419 -360 16 0 -37 68 -114 144 l-89 88 38 64 c110 180 157 372 146
588 -13 238 -104 458 -266 638 -106 117 -288 231 -438 275 l-63 18 0 148 0
147 218 0 c216 0 217 0 227 23 9 21 17 22 128 25 l117 3 0 29 0 30 -94 0
c-105 0 -145 11 -153 40 -5 19 -14 20 -224 20 l-218 0 -3 798 -3 797 -27 50
c-14 28 -40 63 -57 79 l-30 29 -11 -29z"/>
<path d="M5367 6915 c-88 -31 -150 -137 -98 -165 11 -5 77 -10 146 -10 69 0
135 5 146 10 55 30 -19 145 -109 170 -44 12 -38 12 -85 -5z"/>
<path d="M4897 6299 c-26 -15 -47 -63 -47 -109 l0 -40 105 0 105 0 0 51 c0 43
-5 55 -29 80 -24 23 -38 29 -73 29 -24 0 -51 -5 -61 -11z"/>
<path d="M4850 5935 l0 -175 105 0 105 0 0 175 0 175 -105 0 -105 0 0 -175z"/>
<path d="M4850 5475 l0 -245 40 0 40 0 2 193 c3 184 4 192 23 192 19 0 20 -8
23 -192 l2 -193 40 0 40 0 0 245 0 245 -105 0 -105 0 0 -245z"/>
<path d="M5499 5461 c-51 -32 -104 -91 -118 -133 -13 -37 -2 -36 70 7 60 37
139 117 139 141 0 23 -43 16 -91 -15z"/>
<path d="M5546 5359 c-21 -21 -70 -54 -107 -74 l-69 -36 0 -1060 0 -1060 35
-15 c59 -24 140 -11 173 28 9 12 12 249 10 1135 l-3 1119 -39 -37z"/>
<path d="M6057 5360 c-66 -42 -167 -146 -200 -208 -16 -29 -24 -52 -19 -52 23
0 136 87 189 144 67 73 112 146 91 146 -8 0 -35 -13 -61 -30z"/>
<path d="M4850 4990 l0 -200 40 0 40 0 0 200 0 200 -40 0 -40 0 0 -200z"/>
<path d="M4980 4990 l0 -200 40 0 40 0 0 200 0 200 -40 0 -40 0 0 -200z"/>
<path d="M6065 5169 c11 -14 103 -116 204 -227 192 -211 194 -212 222 -161 10
19 14 14 -331 314 -63 55 -106 89 -95 74z"/>
<path d="M4850 4645 l0 -105 40 0 40 0 0 105 0 105 -40 0 -40 0 0 -105z"/>
<path d="M4980 4645 l0 -105 40 0 40 0 0 105 0 105 -40 0 -40 0 0 -105z"/>
<path d="M4850 4390 l0 -110 40 0 40 0 0 110 0 110 -40 0 -40 0 0 -110z"/>
<path d="M4980 4390 l0 -110 40 0 40 0 0 110 0 110 -40 0 -40 0 0 -110z"/>
<path d="M4850 4135 l0 -105 40 0 40 0 0 105 0 105 -40 0 -40 0 0 -105z"/>
<path d="M4980 4135 l0 -105 40 0 40 0 0 105 0 105 -40 0 -40 0 0 -105z"/>
<path d="M4850 3885 l0 -105 40 0 40 0 0 105 0 105 -40 0 -40 0 0 -105z"/>
<path d="M4980 3885 l0 -105 40 0 40 0 0 105 0 105 -40 0 -40 0 0 -105z"/>
<path d="M4850 3635 l0 -105 40 0 40 0 0 105 0 105 -40 0 -40 0 0 -105z"/>
<path d="M4980 3635 l0 -105 40 0 40 0 0 105 0 105 -40 0 -40 0 0 -105z"/>
<path d="M4850 3375 l0 -105 40 0 40 0 0 105 0 105 -40 0 -40 0 0 -105z"/>
<path d="M4980 3375 l0 -105 40 0 40 0 0 105 0 105 -40 0 -40 0 0 -105z"/>
<path d="M4850 3125 l0 -105 40 0 40 0 0 105 0 105 -40 0 -40 0 0 -105z"/>
<path d="M4980 3125 l0 -105 40 0 40 0 0 105 0 105 -40 0 -40 0 0 -105z"/>
<path d="M5556 3083 c-44 -24 -106 -27 -149 -10 l-37 16 0 -220 c0 -239 5
-264 55 -287 49 -23 94 -15 131 22 l34 34 0 231 c0 127 -1 231 -2 230 -2 -1
-16 -8 -32 -16z"/>
<path d="M4850 2875 l0 -105 40 0 40 0 0 105 0 105 -40 0 -40 0 0 -105z"/>
<path d="M4980 2875 l0 -105 40 0 40 0 0 105 0 105 -40 0 -40 0 0 -105z"/>
<path d="M4850 2575 c0 -88 -4 -155 -9 -155 -18 0 -71 -52 -71 -70 0 -51 124
-98 224 -86 137 18 189 93 101 145 l-35 20 0 151 0 150 -40 0 -39 0 -3 -142
c-3 -135 -4 -143 -23 -143 -19 0 -20 8 -23 143 l-3 142 -39 0 -40 0 0 -155z"/>
<path d="M5430 2510 c0 -15 31 -40 50 -40 19 0 50 25 50 40 0 4 -22 8 -50 8
-27 0 -50 -4 -50 -8z"/>
<path d="M4826 2103 c6 -118 10 -140 26 -151 16 -12 18 -29 18 -162 0 -153 8
-200 35 -200 13 0 15 -28 15 -205 l0 -205 35 0 35 0 0 204 c0 192 1 205 19
211 27 8 31 32 31 197 0 133 2 148 19 160 17 12 20 32 26 152 l8 138 -44 -8
c-56 -11 -121 -11 -182 -1 l-48 8 7 -138z"/>
<path d="M4899 1122 c-52 -43 -15 -122 58 -122 39 0 83 37 83 70 0 57 -92 91
-141 52z"/>
</g>
</svg>
